<svg xmlns="http://www.w3.org/2000/svg" viewBox="0 0 168 168" width="168" height="168" aria-label="Spotify glyph">
  <circle cx="84" cy="84" r="84" fill="#1ed760"></circle>
  <path fill="#000" d="M119.2 122.6c-1.5 2.5-4.7 3.3-7.2 1.7-19.7-12-44.5-14.7-73.7-8-2.8.6-5.7-1.1-6.4-3.9-.6-2.8 1.1-5.7 3.9-6.4 31.9-7.3 59.4-4.2 81.6 9.3 2.4 1.5 3.2 4.7 1.8 7.3zm9.3-20.7c-1.9 3-5.8 4-8.9 2.1-22.6-13.9-57-17.9-83.8-9.8-3.4 1-7-1-8-4.4-1-3.4 1-7 4.4-8 30.5-9.2 68.4-4.8 94.4 11.2 3.1 1.8 4 5.8 1.9 8.9zm.8-21.6C102 64.2 56.4 62.4 30.6 70.3c-4 1.2-8.3-1.1-9.5-5.1-1.2-4 1.1-8.3 5.1-9.5 29.7-9 80-7 110.2 11 3.6 2.2 4.8 6.9 2.7 10.5-2.1 3.6-6.9 4.8-10.4 2.7z"></path>
</svg>